<svg width="32" height="33" viewBox="0 0 32 33" fill="none" xmlns="http://www.w3.org/2000/svg ">
<g clip-path="url(#clip0_437_857)">
<path fill-rule="evenodd" clip-rule="evenodd" d="M16.0001 17.9459L23.5428 25.4886C23.7942 25.7315 24.131 25.8659 24.4806 25.8628C24.8302 25.8598 25.1646 25.7196 25.4118 25.4723C25.6591 25.2251 25.7993 24.8907 25.8023 24.5411C25.8054 24.1915 25.671 23.8547 25.4281 23.6033L17.8854 16.0606L25.4281 8.51792C25.671 8.26645 25.8054 7.92964 25.8023 7.58005C25.7993 7.23045 25.6591 6.89604 25.4118 6.64883C25.1646 6.40161 24.8302 6.26139 24.4806 6.25835C24.131 6.25531 23.7942 6.38971 23.5428 6.63258L16.0001 14.1753L8.45742 6.63258C8.20482 6.39571 7.86997 6.2664 7.52373 6.27203C7.17749 6.27765 6.84701 6.41776 6.60224 6.66271C6.35746 6.90766 6.21758 7.23823 6.21221 7.58448C6.20683 7.93073 6.33637 8.26548 6.57342 8.51792L14.1148 16.0606L6.57209 23.6033C6.44474 23.7262 6.34317 23.8734 6.27329 24.036C6.20341 24.1987 6.16663 24.3737 6.16509 24.5507C6.16355 24.7278 6.19729 24.9033 6.26433 25.0672C6.33137 25.2311 6.43037 25.3799 6.55556 25.5051C6.68075 25.6303 6.82962 25.7293 6.99348 25.7963C7.15735 25.8634 7.33292 25.8971 7.50996 25.8956C7.687 25.894 7.86196 25.8573 8.02463 25.7874C8.1873 25.7175 8.33443 25.6159 8.45742 25.4886L16.0001 17.9459Z" fill="currentColor"/>
</g>
<defs>
<clipPath id="clip0_437_857">
<rect width="32" height="32" fill="white" transform="translate(0 0.0605469)"/>
</clipPath>
</defs>
</svg>
